HIERARCHY
ROOT Hips
{
	OFFSET 0.000000 100.052002 0.000000
	CHANNELS 6 Xposition Yposition Zposition Xrotation Yrotation Zrotation
	JOINT Spine
	{
		OFFSET 0.000000 9.717300 -1.180200
		CHANNELS 6 Xposition Yposition Zposition Xrotation Yrotation Zrotation
		JOINT Spine1
		{
			OFFSET 0.000000 11.336784 -1.376941
			CHANNELS 3 Xrotation Yrotation Zrotation
			JOINT Spine2
			{
				OFFSET 0.000000 12.956383 -1.573654
				CHANNELS 3 Xrotation Yrotation Zrotation
				JOINT Neck
				{
					OFFSET 0.000000 14.575882 -1.770355
					CHANNELS 6 Xposition Yposition Zposition Xrotation Yrotation Zrotation
					JOINT Head
					{
						OFFSET 0.000000 6.720200 1.972200
						CHANNELS 6 Xposition Yposition Zposition Xrotation Yrotation Zrotation
						JOINT HeadTop_End
						{
							OFFSET 0.000000 20.999802 6.162800
							CHANNELS 6 Xposition Yposition Zposition Xrotation Yrotation Zrotation
							End Site
							{
								OFFSET 0.000000 21.885422 0.000000
							}
						}
					}
				}
				JOINT LeftShoulder
				{
					OFFSET 6.140200 12.877686 -1.799413
					CHANNELS 6 Xposition Yposition Zposition Xrotation Yrotation Zrotation
					JOINT LeftArm
					{
						OFFSET 12.558889 -3.380020 -0.058110
						CHANNELS 3 Xrotation Yrotation Zrotation
						JOINT LeftForeArm
						{
							OFFSET 25.560802 0.000000 0.000000
							CHANNELS 3 Xrotation Yrotation Zrotation
							JOINT LeftHand
							{
								OFFSET 23.404095 0.000000 0.000000
								CHANNELS 3 Xrotation Yrotation Zrotation
								JOINT LeftHandThumb1
								{
									OFFSET 4.128799 -1.207092 2.573364
									CHANNELS 6 Xposition Yposition Zposition Xrotation Yrotation Zrotation
									JOINT LeftHandThumb2
									{
										OFFSET 3.106247 -1.793396 1.793392
										CHANNELS 6 Xposition Yposition Zposition Xrotation Yrotation Zrotation
										JOINT LeftHandThumb3
										{
											OFFSET 2.788620 -1.610016 1.610011
											CHANNELS 6 Xposition Yposition Zposition Xrotation Yrotation Zrotation
											JOINT LeftHandThumb4
											{
												OFFSET 2.332939 -1.346924 1.346924
												CHANNELS 6 Xposition Yposition Zposition Xrotation Yrotation Zrotation
												End Site
												{
													OFFSET 2.098068 -1.306122 1.721387
												}
											}
										}
									}
								}
								JOINT LeftHandIndex1
								{
									OFFSET 11.999931 -0.333878 2.508170
									CHANNELS 6 Xposition Yposition Zposition Xrotation Yrotation Zrotation
									JOINT LeftHandIndex2
									{
										OFFSET 3.298477 0.000000 0.000000
										CHANNELS 6 Xposition Yposition Zposition Xrotation Yrotation Zrotation
										JOINT LeftHandIndex3
										{
											OFFSET 3.081009 0.000000 0.000000
											CHANNELS 6 Xposition Yposition Zposition Xrotation Yrotation Zrotation
											JOINT LeftHandIndex4
											{
												OFFSET 2.712151 0.000000 0.000000
												CHANNELS 6 Xposition Yposition Zposition Xrotation Yrotation Zrotation
												End Site
												{
													OFFSET 2.712097 -0.000549 -0.016291
												}
											}
										}
									}
								}
								JOINT LeftHandMiddle1
								{
									OFFSET 12.393951 0.000000 0.000000
									CHANNELS 6 Xposition Yposition Zposition Xrotation Yrotation Zrotation
									JOINT LeftHandMiddle2
									{
										OFFSET 3.432213 0.000000 0.000000
										CHANNELS 6 Xposition Yposition Zposition Xrotation Yrotation Zrotation
										JOINT LeftHandMiddle3
										{
											OFFSET 3.160919 0.000000 0.000000
											CHANNELS 6 Xposition Yposition Zposition Xrotation Yrotation Zrotation
											JOINT LeftHandMiddle4
											{
												OFFSET 2.876404 0.000000 0.000000
												CHANNELS 3 Xrotation Yrotation Zrotation
												End Site
												{
													OFFSET 2.876404 0.000000 0.000000
												}
											}
										}
									}
								}
								JOINT LeftHandRing1
								{
									OFFSET 12.360489 -0.116104 -2.298636
									CHANNELS 6 Xposition Yposition Zposition Xrotation Yrotation Zrotation
									JOINT LeftHandRing2
									{
										OFFSET 2.726105 0.000000 0.000000
										CHANNELS 6 Xposition Yposition Zposition Xrotation Yrotation Zrotation
										JOINT LeftHandRing3
										{
											OFFSET 2.620300 0.000000 0.000000
											CHANNELS 6 Xposition Yposition Zposition Xrotation Yrotation Zrotation
											JOINT LeftHandRing4
											{
												OFFSET 2.226906 0.000000 0.000000
												CHANNELS 6 Xposition Yposition Zposition Xrotation Yrotation Zrotation
												End Site
												{
													OFFSET 2.226898 0.000153 0.003196
												}
											}
										}
									}
								}
								JOINT LeftHandPinky1
								{
									OFFSET 10.793266 -0.303589 -4.149957
									CHANNELS 6 Xposition Yposition Zposition Xrotation Yrotation Zrotation
									JOINT LeftHandPinky2
									{
										OFFSET 2.734612 0.000000 0.000000
										CHANNELS 6 Xposition Yposition Zposition Xrotation Yrotation Zrotation
										JOINT LeftHandPinky3
										{
											OFFSET 2.194000 0.000000 0.000000
											CHANNELS 6 Xposition Yposition Zposition Xrotation Yrotation Zrotation
											JOINT LeftHandPinky4
											{
												OFFSET 1.975510 0.000000 0.000000
												CHANNELS 6 Xposition Yposition Zposition Xrotation Yrotation Zrotation
												End Site
												{
													OFFSET 1.975502 -0.000275 -0.005493
												}
											}
										}
									}
								}
							}
						}
					}
				}
				JOINT RightShoulder
				{
					OFFSET -6.140200 12.877701 -1.741290
					CHANNELS 6 Xposition Yposition Zposition Xrotation Yrotation Zrotation
					JOINT RightArm
					{
						OFFSET -12.558887 -3.380020 0.058096
						CHANNELS 3 Xrotation Yrotation Zrotation
						JOINT RightForeArm
						{
							OFFSET -25.571100 0.000000 -0.000001
							CHANNELS 3 Xrotation Yrotation Zrotation
							JOINT RightHand
							{
								OFFSET -23.401703 0.000000 -0.000001
								CHANNELS 3 Xrotation Yrotation Zrotation
								JOINT RightHandThumb1
								{
									OFFSET -4.237885 -1.241806 2.593891
									CHANNELS 6 Xposition Yposition Zposition Xrotation Yrotation Zrotation
									JOINT RightHandThumb2
									{
										OFFSET -3.173721 -1.832352 1.832350
										CHANNELS 6 Xposition Yposition Zposition Xrotation Yrotation Zrotation
										JOINT RightHandThumb3
										{
											OFFSET -2.734779 -1.578934 1.578928
											CHANNELS 6 Xposition Yposition Zposition Xrotation Yrotation Zrotation
											JOINT RightHandThumb4
											{
												OFFSET -2.254745 -1.301773 1.301779
												CHANNELS 6 Xposition Yposition Zposition Xrotation Yrotation Zrotation
												End Site
												{
													OFFSET -2.004616 -1.260025 1.693210
												}
											}
										}
									}
								}
								JOINT RightHandIndex1
								{
									OFFSET -12.582405 -0.171967 2.675169
									CHANNELS 6 Xposition Yposition Zposition Xrotation Yrotation Zrotation
									JOINT RightHandIndex2
									{
										OFFSET -3.117424 0.000000 0.000000
										CHANNELS 6 Xposition Yposition Zposition Xrotation Yrotation Zrotation
										JOINT RightHandIndex3
										{
											OFFSET -2.856110 0.000000 0.000000
											CHANNELS 6 Xposition Yposition Zposition Xrotation Yrotation Zrotation
											JOINT RightHandIndex4
											{
												OFFSET -2.534607 0.000000 0.000000
												CHANNELS 6 Xposition Yposition Zposition Xrotation Yrotation Zrotation
												End Site
												{
													OFFSET -2.534599 -0.000092 -0.005299
												}
											}
										}
									}
								}
								JOINT RightHandMiddle1
								{
									OFFSET -12.213303 0.000000 -0.000000
									CHANNELS 6 Xposition Yposition Zposition Xrotation Yrotation Zrotation
									JOINT RightHandMiddle2
									{
										OFFSET -3.479240 0.000000 0.000000
										CHANNELS 6 Xposition Yposition Zposition Xrotation Yrotation Zrotation
										JOINT RightHandMiddle3
										{
											OFFSET -3.226028 0.000000 0.000000
											CHANNELS 6 Xposition Yposition Zposition Xrotation Yrotation Zrotation
											JOINT RightHandMiddle4
											{
												OFFSET -2.928001 0.000000 0.000000
												CHANNELS 6 Xposition Yposition Zposition Xrotation Yrotation Zrotation
												End Site
												{
													OFFSET -2.927994 -0.000046 -0.002500
												}
											}
										}
									}
								}
								JOINT RightHandRing1
								{
									OFFSET -12.155838 -0.109528 -2.139221
									CHANNELS 6 Xposition Yposition Zposition Xrotation Yrotation Zrotation
									JOINT RightHandRing2
									{
										OFFSET -2.821602 0.000000 0.000000
										CHANNELS 6 Xposition Yposition Zposition Xrotation Yrotation Zrotation
										JOINT RightHandRing3
										{
											OFFSET -2.687714 0.000000 0.000000
											CHANNELS 6 Xposition Yposition Zposition Xrotation Yrotation Zrotation
											JOINT RightHandRing4
											{
												OFFSET -2.368401 0.000000 0.000000
												CHANNELS 6 Xposition Yposition Zposition Xrotation Yrotation Zrotation
												End Site
												{
													OFFSET -2.368408 0.000122 0.004098
												}
											}
										}
									}
								}
								JOINT RightHandPinky1
								{
									OFFSET -10.912514 -0.136993 -4.154601
									CHANNELS 6 Xposition Yposition Zposition Xrotation Yrotation Zrotation
									JOINT RightHandPinky2
									{
										OFFSET -2.640511 0.000000 0.000000
										CHANNELS 6 Xposition Yposition Zposition Xrotation Yrotation Zrotation
										JOINT RightHandPinky3
										{
											OFFSET -2.149010 0.000000 0.000000
											CHANNELS 6 Xposition Yposition Zposition Xrotation Yrotation Zrotation
											JOINT RightHandPinky4
											{
												OFFSET -1.888405 0.000000 0.000000
												CHANNELS 6 Xposition Yposition Zposition Xrotation Yrotation Zrotation
												End Site
												{
													OFFSET -1.888397 -0.000076 -0.002499
												}
											}
										}
									}
								}
							}
						}
					}
				}
			}
		}
	}
	JOINT LeftUpLeg
	{
		OFFSET 8.078200 -5.402397 -0.535900
		CHANNELS 6 Xposition Yposition Zposition Xrotation Yrotation Zrotation
		JOINT LeftLeg
		{
			OFFSET 0.166247 -42.704498 -2.695473
			CHANNELS 3 Xrotation Yrotation Zrotation
			JOINT LeftFoot
			{
				OFFSET -0.166255 -42.074757 -2.882279
				CHANNELS 3 Xrotation Yrotation Zrotation
				JOINT LeftToeBase
				{
					OFFSET 1.133370 -9.116460 13.321884
					CHANNELS 3 Xrotation Yrotation Zrotation
					JOINT LeftToe_End
					{
						OFFSET 0.591577 -0.054453 6.177401
						CHANNELS 3 Xrotation Yrotation Zrotation
						End Site
						{
							OFFSET 0.591577 -0.054453 6.177402
						}
					}
				}
			}
		}
	}
	JOINT RightUpLeg
	{
		OFFSET -8.078200 -5.402397 -0.751800
		CHANNELS 6 Xposition Yposition Zposition Xrotation Yrotation Zrotation
		JOINT RightLeg
		{
			OFFSET -0.166221 -42.704521 -2.464558
			CHANNELS 3 Xrotation Yrotation Zrotation
			JOINT RightFoot
			{
				OFFSET 0.166220 -42.074753 -2.968993
				CHANNELS 3 Xrotation Yrotation Zrotation
				JOINT RightToeBase
				{
					OFFSET -1.133402 -9.116828 13.416508
					CHANNELS 3 Xrotation Yrotation Zrotation
					JOINT RightToe_End
					{
						OFFSET -0.591581 -0.054615 6.151378
						CHANNELS 3 Xrotation Yrotation Zrotation
						End Site
						{
							OFFSET -0.591581 -0.054615 6.151378
						}
					}
				}
			}
		}
	}
}
MOTION
Frames: 4
Frame Time: 0.033333
-0.725822 104.415489 12.222044 7.548046 -3.823702 6.304865 -0.000001 9.717299 -1.180201 -1.730132 0.476657 0.186052 -3.479691 1.068677 1.069200 -3.480538 1.068821 1.069027 0.000000 14.575884 -1.770356 2.842676 2.592209 -1.806007 0.000001 6.720196 1.972199 2.842686 2.592209 -1.806001 0.000001 20.999817 6.162800 0.000000 -0.000000 -0.000000 6.140200 12.877687 -1.799414 -3.641549 12.045805 20.010520 -45.411831 -66.304464 29.711391 0.000003 -11.365148 0.000013 47.742920 -2.928982 -33.333567 4.128808 -1.207101 2.573378 -1.540053 3.690174 6.142356 3.106255 -1.793411 1.793393 3.946771 7.971398 0.752845 2.788620 -1.610023 1.610015 -0.575585 1.586253 2.542360 2.332958 -1.346920 1.346889 -0.000002 -0.000000 0.000002 11.999942 -0.333894 2.508185 -0.000008 -0.000005 0.000002 3.298468 -0.000009 0.000007 0.000009 0.000004 -0.000039 3.080998 -0.000010 0.000003 -0.000003 -0.000003 0.000001 2.712151 -0.000020 0.000004 -0.000000 -0.000001 -0.000000 12.393951 -0.000010 0.000010 -0.000013 -0.001928 0.015975 3.432217 0.000013 -0.000004 0.000019 0.001926 -0.015970 3.160900 0.000003 0.000006 -0.000012 0.000007 -0.000005 -0.000001 -0.000001 -0.000002 12.360502 -0.116108 -2.298632 -0.000007 -0.000000 -0.000002 2.726088 -0.000032 -0.000007 0.000010 -0.000003 -0.000002 2.620322 0.000016 -0.000004 -0.000014 0.000001 0.000001 2.226901 -0.000015 0.000001 0.000002 -0.000000 0.000002 10.793278 -0.303575 -4.149948 -0.018099 4.054258 0.511057 2.734617 -0.000008 -0.000004 -0.018064 -4.054253 -0.511064 2.194004 0.000009 0.000006 -0.000003 -0.000002 -0.000001 1.975521 -0.000029 0.000006 -0.000001 -0.000002 -0.000001 -6.140200 12.877720 -1.741292 0.609284 -2.036492 5.780895 10.958309 -35.018885 56.032116 -0.000006 13.047822 -0.000013 7.024100 0.075025 -0.440893 -4.237898 -1.241820 2.593886 -1.849259 -3.581784 -6.586131 -3.173730 -1.832347 1.832350 4.645044 -8.656811 -0.231330 -2.734785 -1.578915 1.578940 -1.269833 0.126069 -2.098678 -2.254755 -1.301774 1.301787 0.000000 -0.000003 0.000004 -12.582404 -0.171976 2.675167 -0.000009 -0.000003 0.000006 -3.117432 -0.000006 -0.000003 0.000007 0.000001 0.000037 -2.856108 0.000015 0.000000 0.000012 0.000005 -0.000001 -2.534609 0.000012 -0.000000 -0.000000 0.000001 0.000001 -12.213316 -0.000001 -0.000004 0.000003 0.000003 0.000002 -3.479238 0.000026 0.000002 -0.000002 -0.000000 0.000002 -3.226020 0.000004 0.000000 0.000004 -0.000001 -0.000000 -2.927994 -0.000028 0.000001 -0.000000 0.000000 0.000000 -12.155847 -0.109554 -2.139225 -0.000002 -0.000001 0.000003 -2.821595 -0.000002 0.000002 -0.000007 -0.000008 0.000028 -2.687719 -0.000036 -0.000000 0.000009 0.000010 -0.000005 -2.368398 0.000017 -0.000002 0.000000 0.000001 -0.000001 -10.912518 -0.137006 -4.154599 -0.000003 0.000003 -0.000002 -2.640520 0.000009 0.000005 0.000004 -0.000003 0.000007 -2.149019 -0.000011 0.000002 -0.000004 -0.000004 0.000004 -1.888402 -0.000014 0.000003 0.000001 -0.000001 -0.000001 8.078201 -5.402396 -0.535901 -15.547599 6.105100 7.483926 10.114377 8.640747 0.671415 38.931262 9.181365 6.428660 -32.069244 0.710607 -5.617877 0.000001 0.000003 0.000002 -8.078202 -5.402383 -0.751801 -22.754847 -5.668422 -21.780447 14.204598 -1.497143 -0.189816 32.782073 -6.628886 -13.672100 -30.084425 -0.340885 3.545611 -0.000001 0.000001 -0.000002 
0.222116 104.184875 12.122869 6.817222 -2.889247 6.327454 0.000000 9.717302 -1.180201 -1.611005 0.502364 -0.496990 -3.252849 1.186478 0.812886 -3.251631 1.191797 0.812868 0.000001 14.575899 -1.770356 2.754543 2.412847 -2.048250 0.000000 6.720204 1.972198 2.754568 2.412843 -2.048248 -0.000000 20.999817 6.162797 -0.000000 -0.000000 -0.000000 6.140192 12.877678 -1.799417 -3.612292 12.006497 19.841435 -45.301646 -64.940277 29.265786 0.000001 -13.569109 -0.000001 43.925121 -1.231236 -33.044824 4.128804 -1.207072 2.573376 -1.540051 3.690177 6.142355 3.106242 -1.793417 1.793390 3.946770 7.971399 0.752850 2.788610 -1.610018 1.610008 -0.575584 1.586257 2.542357 2.332911 -1.346933 1.346907 -0.000001 0.000001 0.000005 11.999928 -0.333874 2.508182 -0.000007 -0.000002 -0.000002 3.298494 -0.000012 -0.000004 0.000008 0.000009 -0.000041 3.081015 0.000000 0.000007 -0.000003 -0.000003 0.000004 2.712150 -0.000014 -0.000000 -0.000000 -0.000002 0.000000 12.393937 0.000008 0.000011 -0.000011 -0.001929 0.015972 3.432225 0.000017 0.000003 0.000024 0.001928 -0.015971 3.160926 -0.000002 0.000010 -0.000013 0.000005 -0.000012 -0.000000 -0.000002 -0.000002 12.360489 -0.116093 -2.298629 -0.000007 -0.000001 -0.000006 2.726101 -0.000030 0.000001 0.000009 0.000001 -0.000001 2.620297 -0.000015 0.000002 -0.000016 0.000004 -0.000002 2.226896 0.000018 -0.000005 0.000001 0.000000 0.000004 10.793252 -0.303576 -4.149947 -0.018097 4.054260 0.511055 2.734603 -0.000011 0.000005 -0.018067 -4.054256 -0.511061 2.193988 0.000001 -0.000003 -0.000001 -0.000002 -0.000004 1.975545 -0.000015 -0.000004 0.000000 0.000001 -0.000002 -6.140202 12.877713 -1.741293 0.584346 -2.145628 5.694636 10.993687 -35.051093 56.724964 -0.000007 12.799691 -0.000019 8.015143 -0.789882 0.334070 -4.237883 -1.241826 2.593889 -1.849259 -3.581786 -6.586132 -3.173718 -1.832341 1.832345 4.645046 -8.656809 -0.231332 -2.734786 -1.578914 1.578940 -1.269839 0.126067 -2.098677 -2.254745 -1.301763 1.301790 0.000002 -0.000009 -0.000000 -12.582393 -0.171970 2.675169 -0.000010 -0.000003 0.000007 -3.117418 0.000003 -0.000003 0.000004 -0.000003 0.000037 -2.856119 0.000013 -0.000004 0.000008 0.000002 0.000004 -2.534617 0.000003 -0.000002 -0.000002 0.000001 0.000001 -12.213301 -0.000004 -0.000001 0.000002 0.000001 -0.000001 -3.479240 0.000031 0.000002 0.000001 -0.000001 0.000003 -3.226028 0.000001 -0.000001 0.000002 -0.000002 -0.000000 -2.928008 -0.000002 0.000002 0.000000 0.000002 -0.000001 -12.155845 -0.109526 -2.139220 -0.000003 -0.000001 0.000003 -2.821607 -0.000002 -0.000001 -0.000009 -0.000011 0.000030 -2.687718 -0.000021 0.000001 0.000004 0.000007 -0.000005 -2.368398 0.000015 -0.000002 -0.000002 -0.000001 -0.000001 -10.912516 -0.136999 -4.154598 -0.000001 0.000001 -0.000002 -2.640529 0.000009 -0.000001 0.000008 0.000002 0.000010 -2.149026 -0.000013 -0.000001 -0.000001 -0.000002 0.000010 -1.888421 -0.000013 -0.000000 -0.000002 -0.000000 0.000000 8.078200 -5.402390 -0.535902 -14.624084 5.688555 6.904613 11.060067 8.195651 0.590503 34.179971 6.981954 5.466620 -28.043403 0.696800 -5.838765 -0.000000 -0.000001 -0.000002 -8.078196 -5.402391 -0.751801 -21.985650 -5.586740 -22.458227 14.589286 -1.879714 -0.213319 31.865838 -6.752402 -14.511191 -29.771145 -0.324065 3.390117 -0.000000 0.000002 0.000000 
1.293401 103.867538 12.006666 6.335095 -1.855295 6.155481 0.000001 9.717298 -1.180198 -1.491902 0.502490 -0.916924 -3.020330 1.202810 0.694678 -3.017596 1.211248 0.694728 0.000000 14.575887 -1.770356 2.542271 2.317627 -2.266048 -0.000001 6.720183 1.972199 2.542271 2.317628 -2.266050 0.000000 20.999786 6.162801 -0.000000 0.000000 -0.000000 6.140197 12.877687 -1.799416 -3.582810 12.022399 19.531594 -47.992874 -63.195144 25.328973 0.000001 -16.950059 -0.000002 35.662422 2.880331 -31.869523 4.128819 -1.207067 2.573360 -1.540051 3.690174 6.142358 3.106235 -1.793383 1.793403 3.946766 7.971392 0.752844 2.788598 -1.610008 1.610012 -0.575588 1.586256 2.542359 2.332926 -1.346971 1.346921 0.000003 -0.000004 0.000002 11.999924 -0.333874 2.508169 -0.000009 -0.000003 0.000000 3.298495 -0.000006 0.000003 0.000011 0.000003 -0.000041 3.081000 0.000001 -0.000012 -0.000006 -0.000003 0.000004 2.712133 -0.000016 -0.000002 0.000002 0.000001 0.000001 12.393958 0.000007 -0.000005 -0.000012 -0.001925 0.015972 3.432217 0.000001 0.000003 0.000019 0.001926 -0.015973 3.160948 0.000021 -0.000003 -0.000012 -0.000000 -0.000008 -0.000001 0.000001 -0.000000 12.360502 -0.116090 -2.298640 -0.000009 -0.000001 -0.000002 2.726093 -0.000021 0.000001 0.000008 -0.000002 -0.000001 2.620277 -0.000018 0.000004 -0.000017 0.000001 0.000000 2.226915 -0.000016 -0.000004 0.000001 -0.000001 -0.000001 10.793273 -0.303558 -4.149959 -0.018098 4.054262 0.511055 2.734619 -0.000006 0.000001 -0.018063 -4.054257 -0.511064 2.193996 0.000012 0.000001 -0.000000 -0.000001 -0.000001 1.975512 -0.000003 0.000000 -0.000002 -0.000002 -0.000004 -6.140201 12.877697 -1.741294 0.564184 -2.212414 5.559679 11.111576 -34.827022 57.461657 -0.000009 13.329858 0.000003 8.806763 -1.611434 1.323748 -4.237890 -1.241814 2.593884 -1.849258 -3.581785 -6.586132 -3.173726 -1.832350 1.832343 4.645044 -8.656812 -0.231328 -2.734790 -1.578917 1.578937 -1.269834 0.126067 -2.098679 -2.254755 -1.301774 1.301793 -0.000000 -0.000003 0.000001 -12.582401 -0.171981 2.675167 -0.000007 -0.000004 0.000005 -3.117436 -0.000008 0.000003 0.000002 -0.000000 0.000038 -2.856096 0.000026 0.000001 0.000010 0.000003 0.000004 -2.534598 -0.000001 0.000003 0.000002 -0.000000 0.000002 -12.213314 0.000008 -0.000005 0.000002 -0.000000 0.000002 -3.479230 0.000014 0.000001 0.000002 0.000002 -0.000001 -3.226022 -0.000000 -0.000000 0.000001 -0.000001 0.000001 -2.928016 -0.000016 0.000001 0.000001 0.000000 -0.000000 -12.155841 -0.109526 -2.139225 -0.000003 -0.000003 0.000004 -2.821593 -0.000002 -0.000002 -0.000006 -0.000009 0.000030 -2.687714 -0.000008 -0.000000 0.000004 0.000007 -0.000003 -2.368392 0.000017 -0.000002 -0.000001 0.000000 0.000003 -10.912525 -0.136993 -4.154603 -0.000003 -0.000001 -0.000001 -2.640516 0.000009 -0.000002 0.000003 -0.000002 0.000005 -2.149006 -0.000009 0.000001 -0.000003 -0.000004 0.000002 -1.888404 -0.000014 -0.000001 0.000001 0.000001 0.000002 8.078201 -5.402391 -0.535897 -15.692146 5.020883 6.814166 15.535393 8.268553 0.520122 26.867466 3.837730 3.912203 -22.182735 0.235323 -3.512562 -0.000000 -0.000000 -0.000000 -8.078194 -5.402384 -0.751799 -21.348079 -5.588800 -23.070169 14.872636 -2.148187 -0.229522 30.985327 -6.697015 -14.784896 -29.333088 -0.308711 3.271409 0.000001 0.000001 -0.000001 
2.508382 103.464920 11.880043 6.313970 -0.537416 5.812769 0.000000 9.717309 -1.180200 -1.429084 0.451692 -1.130498 -2.895895 1.098568 0.740321 -2.892480 1.109037 0.740418 0.000003 14.575901 -1.770356 2.183279 2.309768 -2.432214 0.000001 6.720221 1.972201 2.183286 2.309769 -2.432212 -0.000001 20.999756 6.162799 0.000000 -0.000000 0.000000 6.140199 12.877668 -1.799416 -3.487187 11.896454 18.966911 -53.929999 -60.222010 17.356494 -0.000007 -22.591433 -0.000009 22.695462 8.847327 -29.876166 4.128812 -1.207090 2.573360 -1.540057 3.690174 6.142356 3.106246 -1.793400 1.793392 3.946776 7.971402 0.752848 2.788621 -1.610011 1.610013 -0.575585 1.586256 2.542362 2.332927 -1.346938 1.346925 -0.000005 0.000003 0.000005 11.999930 -0.333894 2.508168 -0.000007 -0.000006 0.000004 3.298488 -0.000007 0.000002 0.000013 0.000009 -0.000038 3.080997 -0.000015 0.000007 -0.000003 -0.000003 0.000002 2.712158 -0.000016 0.000003 -0.000001 -0.000000 0.000000 12.393945 -0.000015 0.000001 -0.000010 -0.001928 0.015975 3.432211 -0.000004 0.000007 0.000017 0.001927 -0.015971 3.160912 0.000035 -0.000006 -0.000016 0.000004 -0.000004 0.000001 0.000003 -0.000001 12.360495 -0.116125 -2.298638 -0.000010 -0.000001 -0.000002 2.726104 -0.000049 0.000013 0.000009 0.000000 0.000000 2.620281 -0.000017 -0.000006 -0.000016 0.000001 -0.000002 2.226875 -0.000031 -0.000001 -0.000001 -0.000000 0.000000 10.793267 -0.303576 -4.149960 -0.018100 4.054262 0.511061 2.734620 -0.000024 -0.000004 -0.018063 -4.054258 -0.511062 2.193987 0.000013 -0.000004 0.000001 0.000003 0.000002 1.975499 0.000002 0.000006 0.000002 0.000000 0.000001 -6.140196 12.877718 -1.741293 0.548493 -2.260200 5.441957 11.516066 -34.437612 58.095615 -0.000011 15.219878 -0.000009 8.241080 -2.531183 2.424697 -4.237888 -1.241820 2.593894 -1.849260 -3.581786 -6.586135 -3.173714 -1.832347 1.832348 4.645045 -8.656813 -0.231330 -2.734785 -1.578917 1.578939 -1.269838 0.126069 -2.098678 -2.254736 -1.301772 1.301784 0.000002 -0.000005 -0.000001 -12.582392 -0.171975 2.675175 -0.000009 -0.000005 0.000001 -3.117428 0.000022 0.000001 0.000006 0.000002 0.000041 -2.856107 0.000016 -0.000000 0.000007 0.000004 0.000005 -2.534608 0.000017 -0.000003 -0.000002 -0.000000 0.000000 -12.213301 0.000017 0.000004 0.000002 -0.000000 -0.000004 -3.479241 0.000031 -0.000001 -0.000004 0.000004 0.000000 -3.226024 -0.000002 -0.000000 0.000004 0.000001 -0.000002 -2.928008 -0.000028 0.000001 0.000000 -0.000002 -0.000001 -12.155842 -0.109537 -2.139215 -0.000004 -0.000003 0.000002 -2.821597 -0.000004 -0.000002 -0.000006 -0.000010 0.000029 -2.687707 -0.000020 -0.000001 0.000007 0.000005 -0.000006 -2.368395 -0.000001 -0.000002 -0.000001 0.000000 0.000001 -10.912510 -0.137005 -4.154596 -0.000006 -0.000002 -0.000004 -2.640527 -0.000023 -0.000001 0.000004 -0.000002 0.000007 -2.149014 -0.000024 -0.000002 -0.000001 -0.000003 0.000002 -1.888399 -0.000012 0.000001 0.000001 -0.000000 0.000001 8.078202 -5.402383 -0.535900 -16.870883 4.564048 6.890986 18.753256 6.170597 0.371399 20.345035 1.940173 1.296373 -16.478730 0.015107 -0.916137 0.000001 0.000002 0.000001 -8.078198 -5.402381 -0.751798 -20.917386 -5.623335 -23.690042 14.925852 -2.374448 -0.242918 30.264196 -6.491142 -14.429644 -28.825789 -0.301716 3.229216 0.000000 -0.000001 -0.000003 
